<svg width="655" height="750" viewBox="0 0 655 750" fill="none" xmlns="http://www.w3.org/2000/svg">
<path d="M405.154 145.507L157.154 283.507" stroke="url(#paint0_linear_1_111)" stroke-width="2"/>
<path d="M405.271 145.875L643.271 202.875" stroke="url(#paint1_linear_1_111)" stroke-width="2"/>
<path d="M198.612 95.998L175.612 162.998" stroke="url(#paint2_linear_1_111)" stroke-width="2"/>
<path d="M175.301 162.925L166.301 285.925" stroke="url(#paint3_linear_1_111)" stroke-width="2"/>
<path d="M16.4955 382.114L94.4955 239.114" stroke="url(#paint4_linear_1_111)" stroke-width="2"/>
<path d="M93.3055 512.801L94 238.973" stroke="url(#paint5_linear_1_111)" stroke-width="2"/>
<path d="M326.949 563.424L236.949 583.424" stroke="url(#paint6_linear_1_111)" stroke-width="2"/>
<path d="M237.331 583.485L90.3312 506.485" stroke="url(#paint7_linear_1_111)" stroke-width="2"/>
<path d="M561 239.973L560.001 507.973" stroke="url(#paint8_linear_1_111)" stroke-width="2"/>
<path d="M490.661 281.148L559.661 508.148" stroke="url(#paint9_linear_1_111)" stroke-width="2"/>
<path d="M319.403 28.1047L31.4583 194.309" stroke="url(#paint10_linear_1_111)" stroke-width="2"/>
<path d="M22 198.973L19.3055 549.285" stroke="url(#paint11_linear_1_111)" stroke-width="2"/>
<path d="M325.487 727.869L631.08 551.583" stroke="url(#paint12_linear_1_111)" stroke-width="2"/>
<path d="M635 192.973L635 545.973" stroke="url(#paint13_linear_1_111)" stroke-width="2"/>
<path d="M632.942 371.89L560.942 239.89" stroke="url(#paint14_linear_1_111)" stroke-width="2"/>
<path d="M489.732 469.965L327.51 563.202" stroke="url(#paint15_linear_1_111)" stroke-width="2"/>
<path d="M490.446 469.28L417.446 586.839" stroke="url(#paint16_linear_1_111)" stroke-width="2"/>
<path d="M326.931 559.464L420.208 579.733" stroke="url(#paint17_linear_1_111)" stroke-width="2"/>
<path d="M422.884 579.923L559.884 507.923" stroke="url(#paint18_linear_1_111)" stroke-width="2"/>
<path d="M328.528 730.423V564.219" stroke="url(#paint19_linear_1_111)" stroke-width="2"/>
<path d="M328.841 728.733L162.563 465.238" stroke="url(#paint20_linear_1_111)" stroke-width="2"/>
<path d="M325.119 725.08L93.9524 510.231" stroke="url(#paint21_linear_1_111)" stroke-width="2"/>
<path d="M325.523 559.168L163.3 469.985" stroke="url(#paint22_linear_1_111)" stroke-width="2"/>
<path d="M417.478 578.679L328.255 732.722" stroke="url(#paint23_linear_1_111)" stroke-width="2"/>
<path d="M561.175 240.78L329.175 23.7801" stroke="url(#paint24_linear_1_111)" stroke-width="2"/>
<path d="M491.074 278.782L328.851 27.4483" stroke="url(#paint25_linear_1_111)" stroke-width="2"/>
<path d="M328 189.231V18.9731" stroke="url(#paint26_linear_1_111)" stroke-width="2"/>
<path d="M93.9508 239.716L333.229 16.7594" stroke="url(#paint27_linear_1_111)" stroke-width="2"/>
<path d="M248.668 145.975L485.668 279.975" stroke="url(#paint28_linear_1_111)" stroke-width="2"/>
<path d="M166.208 278.303L93.2083 505.314" stroke="url(#paint29_linear_1_111)" stroke-width="2"/>
<path d="M248.792 146.582L22.7918 198.582" stroke="url(#paint30_linear_1_111)" stroke-width="2"/>
<path d="M328.22 19.3162L165.997 278.757" stroke="url(#paint31_linear_1_111)" stroke-width="2"/>
<path d="M23.3393 198.902L165.284 279.977" stroke="url(#paint32_linear_1_111)" stroke-width="2"/>
<path d="M93.5412 509.696L20.5412 371.868" stroke="url(#paint33_linear_1_111)" stroke-width="2"/>
<path d="M21.366 547.505L163.311 470.484" stroke="url(#paint34_linear_1_111)" stroke-width="2"/>
<path d="M166.306 281.737V468.21" stroke="url(#paint35_linear_1_111)" stroke-width="2"/>
<path d="M491.772 279.852L633.716 198.901" stroke="url(#paint36_linear_1_111)" stroke-width="2"/>
<path d="M491 277.973V467.973" stroke="url(#paint37_linear_1_111)" stroke-width="2"/>
<path d="M482.635 164.038L490.746 281.597" stroke="url(#paint38_linear_1_111)" stroke-width="2"/>
<path d="M329.161 726.179L559.161 508.179" stroke="url(#paint39_linear_1_111)" stroke-width="2"/>
<path d="M633.7 551.036L487.7 465.907" stroke="url(#paint40_linear_1_111)" stroke-width="2"/>
<path d="M632.467 371.849L502.69 623.181" stroke="url(#paint41_linear_1_111)" stroke-width="2"/>
<path d="M328.278 749.946C339.477 749.946 348.556 740.87 348.556 729.677C348.556 718.485 339.477 709.409 328.278 709.409C317.079 709.409 308 718.485 308 729.677C308 740.87 317.079 749.946 328.278 749.946Z" fill="url(#paint42_linear_1_111)"/>
<path d="M490.278 486.511C501.475 486.511 510.556 477.434 510.556 466.242C510.556 455.049 501.475 445.973 490.278 445.973C479.08 445.973 470 455.049 470 466.242C470 477.434 479.08 486.511 490.278 486.511Z" fill="url(#paint43_linear_1_111)" stroke="url(#paint44_linear_1_111)" stroke-width="2"/>
<path d="M166.278 299.511C177.477 299.511 186.556 290.436 186.556 279.242C186.556 268.048 177.477 258.973 166.278 258.973C155.079 258.973 146 268.048 146 279.242C146 290.436 155.079 299.511 166.278 299.511Z" fill="url(#paint45_linear_1_111)" stroke="url(#paint46_linear_1_111)" stroke-width="2"/>
<path d="M328.278 40.5376C339.477 40.5376 348.556 31.463 348.556 20.2688C348.556 9.07467 339.477 0 328.278 0C317.079 0 308 9.07467 308 20.2688C308 31.463 317.079 40.5376 328.278 40.5376Z" fill="url(#paint47_linear_1_111)"/>
<path d="M634.278 218.511C645.475 218.511 654.556 209.436 654.556 198.242C654.556 187.048 645.475 177.973 634.278 177.973C623.08 177.973 614 187.048 614 198.242C614 209.436 623.08 218.511 634.278 218.511Z" fill="#B500A5"/>
<path d="M20.2778 571.511C31.4769 571.511 40.5556 562.434 40.5556 551.242C40.5556 540.05 31.4769 530.973 20.2778 530.973C9.07869 530.973 0 540.05 0 551.242C0 562.434 9.07869 571.511 20.2778 571.511Z" fill="#15476E"/>
<path d="M103.444 612.118C111.284 612.118 117.639 605.766 117.639 597.93C117.639 590.094 111.284 583.742 103.444 583.742C95.6051 583.742 89.25 590.094 89.25 597.93C89.25 605.766 95.6051 612.118 103.444 612.118Z" fill="#15476E"/>
<path d="M549.556 162.151C557.395 162.151 563.75 155.798 563.75 147.962C563.75 140.126 557.395 133.774 549.556 133.774C541.716 133.774 535.361 140.126 535.361 147.962C535.361 155.798 541.716 162.151 549.556 162.151Z" fill="#B500A5"/>
<path d="M166.194 480.349C174.034 480.349 180.389 473.997 180.389 466.161C180.389 458.325 174.034 451.973 166.194 451.973C158.355 451.973 152 458.325 152 466.161C152 473.997 158.355 480.349 166.194 480.349Z" fill="url(#paint48_linear_1_111)" stroke="url(#paint49_linear_1_111)" stroke-width="2"/>
<path d="M91.2778 522.935C99.1171 522.935 105.472 516.583 105.472 508.747C105.472 500.911 99.1171 494.559 91.2778 494.559C83.4384 494.559 77.0833 500.911 77.0833 508.747C77.0833 516.583 83.4384 522.935 91.2778 522.935Z" fill="url(#paint50_linear_1_111)" stroke="url(#paint51_linear_1_111)" stroke-width="2"/>
<path d="M20.1944 389.349C28.0338 389.349 34.3889 382.997 34.3889 375.161C34.3889 367.325 28.0338 360.973 20.1944 360.973C12.3551 360.973 6 367.325 6 375.161C6 382.997 12.3551 389.349 20.1944 389.349Z" fill="url(#paint52_linear_1_111)" stroke="url(#paint53_linear_1_111)" stroke-width="2"/>
<path d="M328.194 575.634C336.034 575.634 342.389 569.282 342.389 561.446C342.389 553.61 336.034 547.258 328.194 547.258C320.355 547.258 314 553.61 314 561.446C314 569.282 320.355 575.634 328.194 575.634Z" fill="url(#paint54_linear_1_111)" stroke="url(#paint55_linear_1_111)" stroke-width="2"/>
<path d="M504.944 640.495C512.784 640.495 519.139 634.142 519.139 626.306C519.139 618.471 512.784 612.118 504.944 612.118C497.105 612.118 490.75 618.471 490.75 626.306C490.75 634.142 497.105 640.495 504.944 640.495Z" fill="url(#paint56_linear_1_111)" stroke="url(#paint57_linear_1_111)" stroke-width="2"/>
<path d="M419.778 595.903C427.617 595.903 433.972 589.551 433.972 581.715C433.972 573.879 427.617 567.527 419.778 567.527C411.938 567.527 405.583 573.879 405.583 581.715C405.583 589.551 411.938 595.903 419.778 595.903Z" fill="url(#paint58_linear_1_111)" stroke="url(#paint59_linear_1_111)" stroke-width="2"/>
<path d="M634.194 565.349C642.034 565.349 648.389 558.997 648.389 551.161C648.389 543.325 642.034 536.973 634.194 536.973C626.355 536.973 620 543.325 620 551.161C620 558.997 626.355 565.349 634.194 565.349Z" fill="url(#paint60_linear_1_111)" stroke="url(#paint61_linear_1_111)" stroke-width="2"/>
<path d="M634.194 389.349C642.034 389.349 648.389 382.997 648.389 375.161C648.389 367.325 642.034 360.973 634.194 360.973C626.355 360.973 620 367.325 620 375.161C620 382.997 626.355 389.349 634.194 389.349Z" fill="url(#paint62_linear_1_111)" stroke="url(#paint63_linear_1_111)" stroke-width="2"/>
<path d="M491.194 294.349C499.034 294.349 505.389 287.997 505.389 280.161C505.389 272.325 499.034 265.973 491.194 265.973C483.355 265.973 477 272.325 477 280.161C477 287.997 483.355 294.349 491.194 294.349Z" fill="url(#paint64_linear_1_111)" stroke="url(#paint65_linear_1_111)" stroke-width="2"/>
<path d="M480.611 174.312C488.45 174.312 494.806 167.96 494.806 160.124C494.806 152.288 488.45 145.935 480.611 145.935C472.772 145.935 466.417 152.288 466.417 160.124C466.417 167.96 472.772 174.312 480.611 174.312Z" fill="url(#paint66_linear_1_111)" stroke="url(#paint67_linear_1_111)" stroke-width="2"/>
<path d="M328.194 202.688C336.034 202.688 342.389 196.336 342.389 188.5C342.389 180.664 336.034 174.312 328.194 174.312C320.355 174.312 314 180.664 314 188.5C314 196.336 320.355 202.688 328.194 202.688Z" fill="url(#paint68_linear_1_111)" stroke="url(#paint69_linear_1_111)" stroke-width="2"/>
<path d="M200.778 109.452C208.617 109.452 214.972 103.099 214.972 95.2635C214.972 87.4275 208.617 81.0753 200.778 81.0753C192.938 81.0753 186.583 87.4275 186.583 95.2635C186.583 103.099 192.938 109.452 200.778 109.452Z" fill="url(#paint70_linear_1_111)" stroke="url(#paint71_linear_1_111)" stroke-width="2"/>
<path d="M20.1944 212.349C28.0338 212.349 34.3889 205.997 34.3889 198.161C34.3889 190.325 28.0338 183.973 20.1944 183.973C12.3551 183.973 6 190.325 6 198.161C6 205.997 12.3551 212.349 20.1944 212.349Z" fill="url(#paint72_linear_1_111)" stroke="url(#paint73_linear_1_111)" stroke-width="2"/>
<path d="M174.417 648.602C178.896 648.602 182.528 644.974 182.528 640.495C182.528 636.015 178.896 632.387 174.417 632.387C169.937 632.387 166.306 636.015 166.306 640.495C166.306 644.974 169.937 648.602 174.417 648.602Z" fill="#15476E"/>
<path d="M478.583 117.559C483.065 117.559 486.694 113.929 486.694 109.452C486.694 104.974 483.065 101.344 478.583 101.344C474.102 101.344 470.472 104.974 470.472 109.452C470.472 113.929 474.102 117.559 478.583 117.559Z" fill="#B500A5"/>
<path d="M415.722 81.0753C419.08 81.0753 421.806 78.3528 421.806 74.9946C421.806 71.6365 419.08 68.914 415.722 68.914C412.364 68.914 409.639 71.6365 409.639 74.9946C409.639 78.3528 412.364 81.0753 415.722 81.0753Z" fill="#B500A5"/>
<path d="M237.278 681.032C240.637 681.032 243.361 678.308 243.361 674.952C243.361 671.595 240.637 668.871 237.278 668.871C233.918 668.871 231.194 671.595 231.194 674.952C231.194 678.308 233.918 681.032 237.278 681.032Z" fill="#15476E"/>
<g filter="url(#filter0_d_1_111)">
<mask id="path-68-outside-1_1_111" maskUnits="userSpaceOnUse" x="282" y="329.973" width="95" height="95" fill="black">
<rect fill="white" x="282" y="329.973" width="95" height="95"/>
<path d="M283.168 423.973V331.813H297.376L364.96 412.197V331.813H375.328V423.973H361.12L293.536 343.589V423.973H283.168Z"/>
</mask>
<path d="M283.168 423.973V331.813H297.376L364.96 412.197V331.813H375.328V423.973H361.12L293.536 343.589V423.973H283.168Z" fill="url(#paint74_linear_1_111)"/>
<path d="M283.168 423.973H282.168V424.973H283.168V423.973ZM283.168 331.813V330.813H282.168V331.813H283.168ZM297.376 331.813L298.141 331.17L297.842 330.813H297.376V331.813ZM364.96 412.197L364.195 412.841L365.96 414.94V412.197H364.96ZM364.96 331.813V330.813H363.96V331.813H364.96ZM375.328 331.813H376.328V330.813H375.328V331.813ZM375.328 423.973V424.973H376.328V423.973H375.328ZM361.12 423.973L360.355 424.617L360.654 424.973H361.12V423.973ZM293.536 343.589L294.301 342.946L292.536 340.846V343.589H293.536ZM293.536 423.973V424.973H294.536V423.973H293.536ZM283.168 423.973H284.168V331.813H283.168H282.168V423.973H283.168ZM283.168 331.813V332.813H297.376V331.813V330.813H283.168V331.813ZM297.376 331.813L296.611 332.457L364.195 412.841L364.96 412.197L365.725 411.554L298.141 331.17L297.376 331.813ZM364.96 412.197H365.96V331.813H364.96H363.96V412.197H364.96ZM364.96 331.813V332.813H375.328V331.813V330.813H364.96V331.813ZM375.328 331.813H374.328V423.973H375.328H376.328V331.813H375.328ZM375.328 423.973V422.973H361.12V423.973V424.973H375.328V423.973ZM361.12 423.973L361.885 423.33L294.301 342.946L293.536 343.589L292.771 344.233L360.355 424.617L361.12 423.973ZM293.536 343.589H292.536V423.973H293.536H294.536V343.589H293.536ZM293.536 423.973V422.973H283.168V423.973V424.973H293.536V423.973Z" fill="black" mask="url(#path-68-outside-1_1_111)"/>
<path d="M283.168 423.973H282.168V424.973H283.168V423.973ZM283.168 331.813V330.813H282.168V331.813H283.168ZM297.376 331.813L298.141 331.17L297.842 330.813H297.376V331.813ZM364.96 412.197L364.195 412.841L365.96 414.94V412.197H364.96ZM364.96 331.813V330.813H363.96V331.813H364.96ZM375.328 331.813H376.328V330.813H375.328V331.813ZM375.328 423.973V424.973H376.328V423.973H375.328ZM361.12 423.973L360.355 424.617L360.654 424.973H361.12V423.973ZM293.536 343.589L294.301 342.946L292.536 340.846V343.589H293.536ZM293.536 423.973V424.973H294.536V423.973H293.536ZM283.168 423.973H284.168V331.813H283.168H282.168V423.973H283.168ZM283.168 331.813V332.813H297.376V331.813V330.813H283.168V331.813ZM297.376 331.813L296.611 332.457L364.195 412.841L364.96 412.197L365.725 411.554L298.141 331.17L297.376 331.813ZM364.96 412.197H365.96V331.813H364.96H363.96V412.197H364.96ZM364.96 331.813V332.813H375.328V331.813V330.813H364.96V331.813ZM375.328 331.813H374.328V423.973H375.328H376.328V331.813H375.328ZM375.328 423.973V422.973H361.12V423.973V424.973H375.328V423.973ZM361.12 423.973L361.885 423.33L294.301 342.946L293.536 343.589L292.771 344.233L360.355 424.617L361.12 423.973ZM293.536 343.589H292.536V423.973H293.536H294.536V343.589H293.536ZM293.536 423.973V422.973H283.168V423.973V424.973H293.536V423.973Z" fill="black" fill-opacity="0.2" mask="url(#path-68-outside-1_1_111)"/>
</g>
<defs>
<filter id="filter0_d_1_111" x="278.168" y="330.813" width="102.16" height="102.16" filterUnits="userSpaceOnUse" color-interpolation-filters="sRGB">
<feFlood flood-opacity="0" result="BackgroundImageFix"/>
<feColorMatrix in="SourceAlpha" type="matrix" values="0 0 0 0 0 0 0 0 0 0 0 0 0 0 0 0 0 0 127 0" result="hardAlpha"/>
<feOffset dy="4"/>
<feGaussianBlur stdDeviation="2"/>
<feComposite in2="hardAlpha" operator="out"/>
<feColorMatrix type="matrix" values="0 0 0 0 0 0 0 0 0 0 0 0 0 0 0 0 0 0 0.25 0"/>
<feBlend mode="normal" in2="BackgroundImageFix" result="effect1_dropShadow_1_111"/>
<feBlend mode="normal" in="SourceGraphic" in2="effect1_dropShadow_1_111" result="shape"/>
</filter>
<linearGradient id="paint0_linear_1_111" x1="281.154" y1="145.507" x2="281.154" y2="283.507" gradientUnits="userSpaceOnUse">
<stop stop-color="#15476E"/>
<stop offset="1" stop-color="#B500A5"/>
</linearGradient>
<linearGradient id="paint1_linear_1_111" x1="524.271" y1="145.875" x2="524.271" y2="202.875" gradientUnits="userSpaceOnUse">
<stop stop-color="#15476E"/>
<stop offset="1" stop-color="#B500A5"/>
</linearGradient>
<linearGradient id="paint2_linear_1_111" x1="187.112" y1="95.998" x2="187.112" y2="162.998" gradientUnits="userSpaceOnUse">
<stop stop-color="#15476E"/>
<stop offset="1" stop-color="#B500A5"/>
</linearGradient>
<linearGradient id="paint3_linear_1_111" x1="170.801" y1="162.925" x2="170.801" y2="285.925" gradientUnits="userSpaceOnUse">
<stop stop-color="#15476E"/>
<stop offset="1" stop-color="#B500A5"/>
</linearGradient>
<linearGradient id="paint4_linear_1_111" x1="55.4956" y1="239.114" x2="55.4956" y2="382.114" gradientUnits="userSpaceOnUse">
<stop stop-color="#15476E"/>
<stop offset="1" stop-color="#B500A5"/>
</linearGradient>
<linearGradient id="paint5_linear_1_111" x1="nan" y1="nan" x2="nan" y2="nan" gradientUnits="userSpaceOnUse">
<stop stop-color="#15476E"/>
<stop offset="1" stop-color="#B500A5"/>
</linearGradient>
<linearGradient id="paint6_linear_1_111" x1="281.949" y1="563.424" x2="281.949" y2="583.424" gradientUnits="userSpaceOnUse">
<stop stop-color="#15476E"/>
<stop offset="1" stop-color="#B500A5"/>
</linearGradient>
<linearGradient id="paint7_linear_1_111" x1="163.831" y1="506.485" x2="163.831" y2="583.485" gradientUnits="userSpaceOnUse">
<stop stop-color="#15476E"/>
<stop offset="1" stop-color="#B500A5"/>
</linearGradient>
<linearGradient id="paint8_linear_1_111" x1="nan" y1="nan" x2="nan" y2="nan" gradientUnits="userSpaceOnUse">
<stop stop-color="#15476E"/>
<stop offset="1" stop-color="#B500A5"/>
</linearGradient>
<linearGradient id="paint9_linear_1_111" x1="525.161" y1="281.148" x2="525.161" y2="508.148" gradientUnits="userSpaceOnUse">
<stop stop-color="#15476E"/>
<stop offset="1" stop-color="#B500A5"/>
</linearGradient>
<linearGradient id="paint10_linear_1_111" x1="175.431" y1="28.1047" x2="175.431" y2="194.309" gradientUnits="userSpaceOnUse">
<stop stop-color="#15476E"/>
<stop offset="1" stop-color="#B500A5"/>
</linearGradient>
<linearGradient id="paint11_linear_1_111" x1="nan" y1="nan" x2="nan" y2="nan" gradientUnits="userSpaceOnUse">
<stop stop-color="#15476E"/>
<stop offset="1" stop-color="#B500A5"/>
</linearGradient>
<linearGradient id="paint12_linear_1_111" x1="478.283" y1="551.583" x2="478.283" y2="727.869" gradientUnits="userSpaceOnUse">
<stop stop-color="#15476E"/>
<stop offset="1" stop-color="#B500A5"/>
</linearGradient>
<linearGradient id="paint13_linear_1_111" x1="635" y1="545.973" x2="635" y2="192.973" gradientUnits="userSpaceOnUse">
<stop stop-color="#15476E"/>
<stop offset="1" stop-color="#B500A5"/>
</linearGradient>
<linearGradient id="paint14_linear_1_111" x1="596.942" y1="239.89" x2="596.942" y2="371.89" gradientUnits="userSpaceOnUse">
<stop stop-color="#15476E"/>
<stop offset="1" stop-color="#B500A5"/>
</linearGradient>
<linearGradient id="paint15_linear_1_111" x1="408.621" y1="469.965" x2="408.621" y2="563.202" gradientUnits="userSpaceOnUse">
<stop stop-color="#15476E"/>
<stop offset="1" stop-color="#B500A5"/>
</linearGradient>
<linearGradient id="paint16_linear_1_111" x1="453.946" y1="469.28" x2="453.946" y2="586.839" gradientUnits="userSpaceOnUse">
<stop stop-color="#15476E"/>
<stop offset="1" stop-color="#B500A5"/>
</linearGradient>
<linearGradient id="paint17_linear_1_111" x1="373.569" y1="559.464" x2="373.569" y2="579.733" gradientUnits="userSpaceOnUse">
<stop stop-color="#15476E"/>
<stop offset="1" stop-color="#B500A5"/>
</linearGradient>
<linearGradient id="paint18_linear_1_111" x1="491.384" y1="507.923" x2="491.384" y2="579.923" gradientUnits="userSpaceOnUse">
<stop stop-color="#15476E"/>
<stop offset="1" stop-color="#B500A5"/>
</linearGradient>
<linearGradient id="paint19_linear_1_111" x1="nan" y1="nan" x2="nan" y2="nan" gradientUnits="userSpaceOnUse">
<stop stop-color="#15476E"/>
<stop offset="1" stop-color="#B500A5"/>
</linearGradient>
<linearGradient id="paint20_linear_1_111" x1="245.702" y1="465.238" x2="245.702" y2="728.733" gradientUnits="userSpaceOnUse">
<stop stop-color="#15476E"/>
<stop offset="1" stop-color="#B500A5"/>
</linearGradient>
<linearGradient id="paint21_linear_1_111" x1="209.536" y1="510.231" x2="209.536" y2="725.08" gradientUnits="userSpaceOnUse">
<stop stop-color="#15476E"/>
<stop offset="1" stop-color="#B500A5"/>
</linearGradient>
<linearGradient id="paint22_linear_1_111" x1="244.412" y1="469.985" x2="244.412" y2="559.168" gradientUnits="userSpaceOnUse">
<stop stop-color="#15476E"/>
<stop offset="1" stop-color="#B500A5"/>
</linearGradient>
<linearGradient id="paint23_linear_1_111" x1="372.867" y1="578.679" x2="372.867" y2="732.722" gradientUnits="userSpaceOnUse">
<stop stop-color="#15476E"/>
<stop offset="1" stop-color="#B500A5"/>
</linearGradient>
<linearGradient id="paint24_linear_1_111" x1="445.176" y1="23.7801" x2="445.176" y2="240.78" gradientUnits="userSpaceOnUse">
<stop stop-color="#15476E"/>
<stop offset="1" stop-color="#B500A5"/>
</linearGradient>
<linearGradient id="paint25_linear_1_111" x1="409.963" y1="27.4483" x2="409.963" y2="278.782" gradientUnits="userSpaceOnUse">
<stop stop-color="#15476E"/>
<stop offset="1" stop-color="#B500A5"/>
</linearGradient>
<linearGradient id="paint26_linear_1_111" x1="nan" y1="nan" x2="nan" y2="nan" gradientUnits="userSpaceOnUse">
<stop stop-color="#15476E"/>
<stop offset="1" stop-color="#B500A5"/>
</linearGradient>
<linearGradient id="paint27_linear_1_111" x1="213.59" y1="16.7594" x2="213.59" y2="239.716" gradientUnits="userSpaceOnUse">
<stop stop-color="#15476E"/>
<stop offset="1" stop-color="#B500A5"/>
</linearGradient>
<linearGradient id="paint28_linear_1_111" x1="367.169" y1="145.975" x2="367.169" y2="279.975" gradientUnits="userSpaceOnUse">
<stop stop-color="#15476E"/>
<stop offset="1" stop-color="#B500A5"/>
</linearGradient>
<linearGradient id="paint29_linear_1_111" x1="129.708" y1="278.303" x2="129.708" y2="505.314" gradientUnits="userSpaceOnUse">
<stop stop-color="#15476E"/>
<stop offset="1" stop-color="#B500A5"/>
</linearGradient>
<linearGradient id="paint30_linear_1_111" x1="135.792" y1="146.582" x2="135.792" y2="198.582" gradientUnits="userSpaceOnUse">
<stop stop-color="#15476E"/>
<stop offset="1" stop-color="#B500A5"/>
</linearGradient>
<linearGradient id="paint31_linear_1_111" x1="247.108" y1="19.3162" x2="247.108" y2="278.757" gradientUnits="userSpaceOnUse">
<stop stop-color="#15476E"/>
<stop offset="1" stop-color="#B500A5"/>
</linearGradient>
<linearGradient id="paint32_linear_1_111" x1="94.3117" y1="198.902" x2="94.3117" y2="279.977" gradientUnits="userSpaceOnUse">
<stop stop-color="#15476E"/>
<stop offset="1" stop-color="#B500A5"/>
</linearGradient>
<linearGradient id="paint33_linear_1_111" x1="57.0412" y1="371.868" x2="57.0412" y2="509.696" gradientUnits="userSpaceOnUse">
<stop stop-color="#15476E"/>
<stop offset="1" stop-color="#B500A5"/>
</linearGradient>
<linearGradient id="paint34_linear_1_111" x1="92.3383" y1="470.484" x2="92.3383" y2="547.505" gradientUnits="userSpaceOnUse">
<stop stop-color="#15476E"/>
<stop offset="1" stop-color="#B500A5"/>
</linearGradient>
<linearGradient id="paint35_linear_1_111" x1="nan" y1="nan" x2="nan" y2="nan" gradientUnits="userSpaceOnUse">
<stop stop-color="#15476E"/>
<stop offset="1" stop-color="#B500A5"/>
</linearGradient>
<linearGradient id="paint36_linear_1_111" x1="562.744" y1="198.901" x2="562.744" y2="279.852" gradientUnits="userSpaceOnUse">
<stop stop-color="#15476E"/>
<stop offset="1" stop-color="#B500A5"/>
</linearGradient>
<linearGradient id="paint37_linear_1_111" x1="nan" y1="nan" x2="nan" y2="nan" gradientUnits="userSpaceOnUse">
<stop stop-color="#15476E"/>
<stop offset="1" stop-color="#B500A5"/>
</linearGradient>
<linearGradient id="paint38_linear_1_111" x1="486.69" y1="164.038" x2="486.69" y2="281.597" gradientUnits="userSpaceOnUse">
<stop stop-color="#15476E"/>
<stop offset="1" stop-color="#B500A5"/>
</linearGradient>
<linearGradient id="paint39_linear_1_111" x1="444.161" y1="508.179" x2="444.161" y2="726.179" gradientUnits="userSpaceOnUse">
<stop stop-color="#15476E"/>
<stop offset="1" stop-color="#B500A5"/>
</linearGradient>
<linearGradient id="paint40_linear_1_111" x1="560.7" y1="465.907" x2="560.7" y2="551.036" gradientUnits="userSpaceOnUse">
<stop stop-color="#15476E"/>
<stop offset="1" stop-color="#B500A5"/>
</linearGradient>
<linearGradient id="paint41_linear_1_111" x1="567.578" y1="371.849" x2="567.578" y2="623.181" gradientUnits="userSpaceOnUse">
<stop stop-color="#15476E"/>
<stop offset="1" stop-color="#B500A5"/>
</linearGradient>
<linearGradient id="paint42_linear_1_111" x1="328.278" y1="709.409" x2="328.278" y2="749.946" gradientUnits="userSpaceOnUse">
<stop stop-color="#B500A5"/>
<stop offset="1" stop-color="#15476E"/>
</linearGradient>
<linearGradient id="paint43_linear_1_111" x1="490.278" y1="445.973" x2="490.278" y2="486.511" gradientUnits="userSpaceOnUse">
<stop stop-color="#15476E"/>
<stop offset="1" stop-color="#B500A5"/>
</linearGradient>
<linearGradient id="paint44_linear_1_111" x1="490.278" y1="445.973" x2="490.278" y2="486.511" gradientUnits="userSpaceOnUse">
<stop stop-color="#15476E"/>
<stop offset="1" stop-color="#B500A5"/>
</linearGradient>
<linearGradient id="paint45_linear_1_111" x1="166.278" y1="258.973" x2="166.278" y2="299.511" gradientUnits="userSpaceOnUse">
<stop stop-color="#15476E"/>
<stop offset="1" stop-color="#B500A5"/>
</linearGradient>
<linearGradient id="paint46_linear_1_111" x1="166.278" y1="258.973" x2="166.278" y2="299.511" gradientUnits="userSpaceOnUse">
<stop stop-color="#15476E"/>
<stop offset="1" stop-color="#B500A5"/>
</linearGradient>
<linearGradient id="paint47_linear_1_111" x1="328.278" y1="0" x2="328.278" y2="40.5376" gradientUnits="userSpaceOnUse">
<stop stop-color="#15476E"/>
<stop offset="1" stop-color="#B500A5"/>
</linearGradient>
<linearGradient id="paint48_linear_1_111" x1="166.194" y1="451.973" x2="166.194" y2="480.349" gradientUnits="userSpaceOnUse">
<stop stop-color="#15476E"/>
<stop offset="1" stop-color="#B500A5"/>
</linearGradient>
<linearGradient id="paint49_linear_1_111" x1="166.194" y1="451.973" x2="166.194" y2="480.349" gradientUnits="userSpaceOnUse">
<stop stop-color="#15476E"/>
<stop offset="1" stop-color="#B500A5"/>
</linearGradient>
<linearGradient id="paint50_linear_1_111" x1="91.2778" y1="494.559" x2="91.2778" y2="522.935" gradientUnits="userSpaceOnUse">
<stop stop-color="#15476E"/>
<stop offset="1" stop-color="#B500A5"/>
</linearGradient>
<linearGradient id="paint51_linear_1_111" x1="91.2778" y1="494.559" x2="91.2778" y2="522.935" gradientUnits="userSpaceOnUse">
<stop stop-color="#15476E"/>
<stop offset="1" stop-color="#B500A5"/>
</linearGradient>
<linearGradient id="paint52_linear_1_111" x1="20.1944" y1="360.973" x2="20.1944" y2="389.349" gradientUnits="userSpaceOnUse">
<stop stop-color="#15476E"/>
<stop offset="1" stop-color="#B500A5"/>
</linearGradient>
<linearGradient id="paint53_linear_1_111" x1="20.1944" y1="360.973" x2="20.1944" y2="389.349" gradientUnits="userSpaceOnUse">
<stop stop-color="#15476E"/>
<stop offset="1" stop-color="#B500A5"/>
</linearGradient>
<linearGradient id="paint54_linear_1_111" x1="328.194" y1="547.258" x2="328.194" y2="575.634" gradientUnits="userSpaceOnUse">
<stop stop-color="#15476E"/>
<stop offset="1" stop-color="#B500A5"/>
</linearGradient>
<linearGradient id="paint55_linear_1_111" x1="328.194" y1="547.258" x2="328.194" y2="575.634" gradientUnits="userSpaceOnUse">
<stop stop-color="#15476E"/>
<stop offset="1" stop-color="#B500A5"/>
</linearGradient>
<linearGradient id="paint56_linear_1_111" x1="504.944" y1="612.118" x2="504.944" y2="640.495" gradientUnits="userSpaceOnUse">
<stop stop-color="#15476E"/>
<stop offset="1" stop-color="#B500A5"/>
</linearGradient>
<linearGradient id="paint57_linear_1_111" x1="504.944" y1="612.118" x2="504.944" y2="640.495" gradientUnits="userSpaceOnUse">
<stop stop-color="#15476E"/>
<stop offset="1" stop-color="#B500A5"/>
</linearGradient>
<linearGradient id="paint58_linear_1_111" x1="419.778" y1="567.527" x2="419.778" y2="595.903" gradientUnits="userSpaceOnUse">
<stop stop-color="#15476E"/>
<stop offset="1" stop-color="#B500A5"/>
</linearGradient>
<linearGradient id="paint59_linear_1_111" x1="419.778" y1="567.527" x2="419.778" y2="595.903" gradientUnits="userSpaceOnUse">
<stop stop-color="#15476E"/>
<stop offset="1" stop-color="#B500A5"/>
</linearGradient>
<linearGradient id="paint60_linear_1_111" x1="634.194" y1="536.973" x2="634.194" y2="565.349" gradientUnits="userSpaceOnUse">
<stop stop-color="#15476E"/>
<stop offset="1" stop-color="#B500A5"/>
</linearGradient>
<linearGradient id="paint61_linear_1_111" x1="634.194" y1="536.973" x2="634.194" y2="565.349" gradientUnits="userSpaceOnUse">
<stop stop-color="#15476E"/>
<stop offset="1" stop-color="#B500A5"/>
</linearGradient>
<linearGradient id="paint62_linear_1_111" x1="634.194" y1="360.973" x2="634.194" y2="389.349" gradientUnits="userSpaceOnUse">
<stop stop-color="#15476E"/>
<stop offset="1" stop-color="#B500A5"/>
</linearGradient>
<linearGradient id="paint63_linear_1_111" x1="634.194" y1="360.973" x2="634.194" y2="389.349" gradientUnits="userSpaceOnUse">
<stop stop-color="#15476E"/>
<stop offset="1" stop-color="#B500A5"/>
</linearGradient>
<linearGradient id="paint64_linear_1_111" x1="491.194" y1="265.973" x2="491.194" y2="294.349" gradientUnits="userSpaceOnUse">
<stop stop-color="#15476E"/>
<stop offset="1" stop-color="#B500A5"/>
</linearGradient>
<linearGradient id="paint65_linear_1_111" x1="491.194" y1="265.973" x2="491.194" y2="294.349" gradientUnits="userSpaceOnUse">
<stop stop-color="#15476E"/>
<stop offset="1" stop-color="#B500A5"/>
</linearGradient>
<linearGradient id="paint66_linear_1_111" x1="480.611" y1="145.935" x2="480.611" y2="174.312" gradientUnits="userSpaceOnUse">
<stop stop-color="#15476E"/>
<stop offset="1" stop-color="#B500A5"/>
</linearGradient>
<linearGradient id="paint67_linear_1_111" x1="480.611" y1="145.935" x2="480.611" y2="174.312" gradientUnits="userSpaceOnUse">
<stop stop-color="#15476E"/>
<stop offset="1" stop-color="#B500A5"/>
</linearGradient>
<linearGradient id="paint68_linear_1_111" x1="328.194" y1="174.312" x2="328.194" y2="202.688" gradientUnits="userSpaceOnUse">
<stop stop-color="#15476E"/>
<stop offset="1" stop-color="#B500A5"/>
</linearGradient>
<linearGradient id="paint69_linear_1_111" x1="328.194" y1="174.312" x2="328.194" y2="202.688" gradientUnits="userSpaceOnUse">
<stop stop-color="#15476E"/>
<stop offset="1" stop-color="#B500A5"/>
</linearGradient>
<linearGradient id="paint70_linear_1_111" x1="200.778" y1="81.0753" x2="200.778" y2="109.452" gradientUnits="userSpaceOnUse">
<stop stop-color="#15476E"/>
<stop offset="1" stop-color="#B500A5"/>
</linearGradient>
<linearGradient id="paint71_linear_1_111" x1="200.778" y1="81.0753" x2="200.778" y2="109.452" gradientUnits="userSpaceOnUse">
<stop stop-color="#15476E"/>
<stop offset="1" stop-color="#B500A5"/>
</linearGradient>
<linearGradient id="paint72_linear_1_111" x1="20.1944" y1="183.973" x2="20.1944" y2="212.349" gradientUnits="userSpaceOnUse">
<stop stop-color="#15476E"/>
<stop offset="1" stop-color="#B500A5"/>
</linearGradient>
<linearGradient id="paint73_linear_1_111" x1="20.1944" y1="183.973" x2="20.1944" y2="212.349" gradientUnits="userSpaceOnUse">
<stop stop-color="#15476E"/>
<stop offset="1" stop-color="#B500A5"/>
</linearGradient>
<linearGradient id="paint74_linear_1_111" x1="329.5" y1="293.973" x2="329.5" y2="454.973" gradientUnits="userSpaceOnUse">
<stop stop-color="#B500A5"/>
<stop offset="0.995192" stop-color="#15476E"/>
</linearGradient>
</defs>
</svg>
